<mxfile host="app.diagrams.net" modified="2022-11-08T22:42:25.586Z" agent="5.0 (Windows NT 10.0; Win64; x64) AppleWebKit/537.36 (KHTML, like Gecko) Chrome/107.0.0.0 Safari/537.36" etag="gyExoAyOB27bIzT-yYay" version="20.5.3" type="github">
  <diagram id="NSJ0hvRAmqMinunVVk3z" name="Pagina-1">
    <mxGraphModel dx="1550" dy="835" grid="1" gridSize="10" guides="1" tooltips="1" connect="1" arrows="1" fold="1" page="1" pageScale="1" pageWidth="827" pageHeight="1169" math="0" shadow="0">
      <root>
        <mxCell id="0" />
        <mxCell id="1" parent="0" />
        <mxCell id="T63et0xQHMFBG8mWLtPG-1" value="Arduino" style="rounded=0;whiteSpace=wrap;html=1;" vertex="1" parent="1">
          <mxGeometry x="295" y="40" width="120" height="250" as="geometry" />
        </mxCell>
        <mxCell id="T63et0xQHMFBG8mWLtPG-2" value="RS485-transceiver" style="rounded=0;whiteSpace=wrap;html=1;" vertex="1" parent="1">
          <mxGeometry x="515" y="50" width="120" height="60" as="geometry" />
        </mxCell>
        <mxCell id="T63et0xQHMFBG8mWLtPG-4" value="" style="endArrow=classic;startArrow=classic;html=1;rounded=0;entryX=0;entryY=0.5;entryDx=0;entryDy=0;exitX=1.02;exitY=0.159;exitDx=0;exitDy=0;exitPerimeter=0;" edge="1" parent="1" source="T63et0xQHMFBG8mWLtPG-1" target="T63et0xQHMFBG8mWLtPG-2">
          <mxGeometry width="50" height="50" relative="1" as="geometry">
            <mxPoint x="335" y="490" as="sourcePoint" />
            <mxPoint x="385" y="440" as="targetPoint" />
          </mxGeometry>
        </mxCell>
        <mxCell id="T63et0xQHMFBG8mWLtPG-5" value="UART" style="rounded=0;whiteSpace=wrap;html=1;" vertex="1" parent="1">
          <mxGeometry x="375" y="70" width="40" height="20" as="geometry" />
        </mxCell>
        <mxCell id="T63et0xQHMFBG8mWLtPG-6" value="I2C IO-expander 1" style="rounded=0;whiteSpace=wrap;html=1;" vertex="1" parent="1">
          <mxGeometry x="515" y="135" width="120" height="60" as="geometry" />
        </mxCell>
        <mxCell id="T63et0xQHMFBG8mWLtPG-7" value="I2C IO-expander 2" style="rounded=0;whiteSpace=wrap;html=1;" vertex="1" parent="1">
          <mxGeometry x="515" y="220" width="120" height="60" as="geometry" />
        </mxCell>
        <mxCell id="T63et0xQHMFBG8mWLtPG-8" value="I2C IO-expander 3" style="rounded=0;whiteSpace=wrap;html=1;" vertex="1" parent="1">
          <mxGeometry x="515" y="300" width="120" height="60" as="geometry" />
        </mxCell>
        <mxCell id="T63et0xQHMFBG8mWLtPG-9" value="I2C" style="rounded=0;whiteSpace=wrap;html=1;" vertex="1" parent="1">
          <mxGeometry x="375" y="110" width="40" height="20" as="geometry" />
        </mxCell>
        <mxCell id="T63et0xQHMFBG8mWLtPG-10" value="" style="endArrow=classic;startArrow=classic;html=1;rounded=0;entryX=1;entryY=0.5;entryDx=0;entryDy=0;exitX=0;exitY=0.5;exitDx=0;exitDy=0;" edge="1" parent="1" source="T63et0xQHMFBG8mWLtPG-6" target="T63et0xQHMFBG8mWLtPG-9">
          <mxGeometry width="50" height="50" relative="1" as="geometry">
            <mxPoint x="335" y="260" as="sourcePoint" />
            <mxPoint x="385" y="210" as="targetPoint" />
            <Array as="points">
              <mxPoint x="465" y="165" />
              <mxPoint x="465" y="120" />
            </Array>
          </mxGeometry>
        </mxCell>
        <mxCell id="T63et0xQHMFBG8mWLtPG-11" value="" style="endArrow=classic;startArrow=classic;html=1;rounded=0;entryX=1;entryY=0.5;entryDx=0;entryDy=0;exitX=0;exitY=0.5;exitDx=0;exitDy=0;edgeStyle=orthogonalEdgeStyle;" edge="1" parent="1" source="T63et0xQHMFBG8mWLtPG-7" target="T63et0xQHMFBG8mWLtPG-9">
          <mxGeometry width="50" height="50" relative="1" as="geometry">
            <mxPoint x="395" y="210" as="sourcePoint" />
            <mxPoint x="445" y="160" as="targetPoint" />
          </mxGeometry>
        </mxCell>
        <mxCell id="T63et0xQHMFBG8mWLtPG-12" value="" style="endArrow=classic;startArrow=classic;html=1;rounded=0;entryX=1;entryY=0.5;entryDx=0;entryDy=0;exitX=0;exitY=0.5;exitDx=0;exitDy=0;edgeStyle=orthogonalEdgeStyle;" edge="1" parent="1" source="T63et0xQHMFBG8mWLtPG-8" target="T63et0xQHMFBG8mWLtPG-9">
          <mxGeometry width="50" height="50" relative="1" as="geometry">
            <mxPoint x="395" y="290" as="sourcePoint" />
            <mxPoint x="445" y="240" as="targetPoint" />
          </mxGeometry>
        </mxCell>
        <mxCell id="T63et0xQHMFBG8mWLtPG-13" value="" style="endArrow=classic;html=1;rounded=0;exitX=1;exitY=0.5;exitDx=0;exitDy=0;" edge="1" parent="1" source="T63et0xQHMFBG8mWLtPG-6">
          <mxGeometry width="50" height="50" relative="1" as="geometry">
            <mxPoint x="415" y="240" as="sourcePoint" />
            <mxPoint x="665" y="165" as="targetPoint" />
          </mxGeometry>
        </mxCell>
        <mxCell id="T63et0xQHMFBG8mWLtPG-14" value="" style="endArrow=classic;html=1;rounded=0;exitX=1;exitY=0.5;exitDx=0;exitDy=0;" edge="1" parent="1">
          <mxGeometry width="50" height="50" relative="1" as="geometry">
            <mxPoint x="634.9999999999998" y="249.65999999999988" as="sourcePoint" />
            <mxPoint x="664.9999999999998" y="249.66" as="targetPoint" />
          </mxGeometry>
        </mxCell>
        <mxCell id="T63et0xQHMFBG8mWLtPG-15" value="" style="endArrow=classic;html=1;rounded=0;exitX=1;exitY=0.5;exitDx=0;exitDy=0;" edge="1" parent="1">
          <mxGeometry width="50" height="50" relative="1" as="geometry">
            <mxPoint x="634.9999999999998" y="329.9999999999999" as="sourcePoint" />
            <mxPoint x="664.9999999999998" y="330" as="targetPoint" />
          </mxGeometry>
        </mxCell>
        <mxCell id="T63et0xQHMFBG8mWLtPG-16" value="" style="rounded=0;whiteSpace=wrap;html=1;" vertex="1" parent="1">
          <mxGeometry x="225" y="410" width="60" height="30" as="geometry" />
        </mxCell>
        <mxCell id="T63et0xQHMFBG8mWLtPG-17" value="" style="endArrow=none;html=1;rounded=0;entryX=1;entryY=0;entryDx=0;entryDy=0;exitX=0;exitY=1;exitDx=0;exitDy=0;" edge="1" parent="1" source="T63et0xQHMFBG8mWLtPG-16" target="T63et0xQHMFBG8mWLtPG-16">
          <mxGeometry width="50" height="50" relative="1" as="geometry">
            <mxPoint x="515" y="450" as="sourcePoint" />
            <mxPoint x="565" y="400" as="targetPoint" />
          </mxGeometry>
        </mxCell>
        <mxCell id="T63et0xQHMFBG8mWLtPG-18" value="" style="endArrow=none;html=1;rounded=0;entryX=0.5;entryY=0;entryDx=0;entryDy=0;" edge="1" parent="1" target="T63et0xQHMFBG8mWLtPG-16">
          <mxGeometry width="50" height="50" relative="1" as="geometry">
            <mxPoint x="255" y="370" as="sourcePoint" />
            <mxPoint x="415" y="420" as="targetPoint" />
          </mxGeometry>
        </mxCell>
        <mxCell id="T63et0xQHMFBG8mWLtPG-19" value="K1" style="text;html=1;strokeColor=none;fillColor=none;align=center;verticalAlign=middle;whiteSpace=wrap;rounded=0;" vertex="1" parent="1">
          <mxGeometry x="275" y="405" width="60" height="30" as="geometry" />
        </mxCell>
        <mxCell id="T63et0xQHMFBG8mWLtPG-20" value="" style="endArrow=classic;html=1;rounded=0;" edge="1" parent="1">
          <mxGeometry width="50" height="50" relative="1" as="geometry">
            <mxPoint x="255" y="370" as="sourcePoint" />
            <mxPoint x="155" y="370" as="targetPoint" />
          </mxGeometry>
        </mxCell>
        <mxCell id="T63et0xQHMFBG8mWLtPG-21" value="" style="rounded=0;whiteSpace=wrap;html=1;" vertex="1" parent="1">
          <mxGeometry x="335" y="410" width="60" height="30" as="geometry" />
        </mxCell>
        <mxCell id="T63et0xQHMFBG8mWLtPG-22" value="" style="endArrow=none;html=1;rounded=0;entryX=1;entryY=0;entryDx=0;entryDy=0;exitX=0;exitY=1;exitDx=0;exitDy=0;" edge="1" parent="1" source="T63et0xQHMFBG8mWLtPG-21" target="T63et0xQHMFBG8mWLtPG-21">
          <mxGeometry width="50" height="50" relative="1" as="geometry">
            <mxPoint x="625" y="450" as="sourcePoint" />
            <mxPoint x="675" y="400" as="targetPoint" />
          </mxGeometry>
        </mxCell>
        <mxCell id="T63et0xQHMFBG8mWLtPG-23" value="K2" style="text;html=1;strokeColor=none;fillColor=none;align=center;verticalAlign=middle;whiteSpace=wrap;rounded=0;" vertex="1" parent="1">
          <mxGeometry x="385" y="405" width="60" height="30" as="geometry" />
        </mxCell>
        <mxCell id="T63et0xQHMFBG8mWLtPG-24" value="" style="endArrow=classic;html=1;rounded=0;edgeStyle=elbowEdgeStyle;exitX=0.5;exitY=0;exitDx=0;exitDy=0;" edge="1" parent="1" source="T63et0xQHMFBG8mWLtPG-21">
          <mxGeometry width="50" height="50" relative="1" as="geometry">
            <mxPoint x="365" y="400" as="sourcePoint" />
            <mxPoint x="155" y="350" as="targetPoint" />
            <Array as="points">
              <mxPoint x="365" y="370" />
            </Array>
          </mxGeometry>
        </mxCell>
        <mxCell id="T63et0xQHMFBG8mWLtPG-27" value="" style="endArrow=classic;html=1;rounded=0;exitX=1;exitY=0.5;exitDx=0;exitDy=0;" edge="1" parent="1">
          <mxGeometry width="50" height="50" relative="1" as="geometry">
            <mxPoint x="634.9999999999998" y="79.65999999999988" as="sourcePoint" />
            <mxPoint x="664.9999999999998" y="79.66" as="targetPoint" />
          </mxGeometry>
        </mxCell>
        <mxCell id="T63et0xQHMFBG8mWLtPG-28" value="GPIO1" style="rounded=0;whiteSpace=wrap;html=1;" vertex="1" parent="1">
          <mxGeometry x="295" y="110" width="40" height="20" as="geometry" />
        </mxCell>
        <mxCell id="T63et0xQHMFBG8mWLtPG-29" value="" style="endArrow=classic;html=1;rounded=0;" edge="1" parent="1">
          <mxGeometry width="50" height="50" relative="1" as="geometry">
            <mxPoint x="365" y="480" as="sourcePoint" />
            <mxPoint x="155" y="480" as="targetPoint" />
            <Array as="points">
              <mxPoint x="265" y="480" />
            </Array>
          </mxGeometry>
        </mxCell>
        <mxCell id="T63et0xQHMFBG8mWLtPG-30" value="" style="endArrow=none;html=1;rounded=0;entryX=0.5;entryY=1;entryDx=0;entryDy=0;" edge="1" parent="1" target="T63et0xQHMFBG8mWLtPG-21">
          <mxGeometry width="50" height="50" relative="1" as="geometry">
            <mxPoint x="365" y="480" as="sourcePoint" />
            <mxPoint x="345" y="500" as="targetPoint" />
          </mxGeometry>
        </mxCell>
        <mxCell id="T63et0xQHMFBG8mWLtPG-31" value="" style="endArrow=none;html=1;rounded=0;entryX=0.5;entryY=1;entryDx=0;entryDy=0;" edge="1" parent="1">
          <mxGeometry width="50" height="50" relative="1" as="geometry">
            <mxPoint x="254.65999999999997" y="480.0000000000001" as="sourcePoint" />
            <mxPoint x="254.65999999999997" y="440.0000000000001" as="targetPoint" />
          </mxGeometry>
        </mxCell>
        <mxCell id="T63et0xQHMFBG8mWLtPG-34" value="GPIO2" style="rounded=0;whiteSpace=wrap;html=1;" vertex="1" parent="1">
          <mxGeometry x="295" y="140" width="40" height="20" as="geometry" />
        </mxCell>
        <mxCell id="T63et0xQHMFBG8mWLtPG-35" value="GND" style="rounded=0;whiteSpace=wrap;html=1;" vertex="1" parent="1">
          <mxGeometry x="295" y="250" width="40" height="20" as="geometry" />
        </mxCell>
        <mxCell id="T63et0xQHMFBG8mWLtPG-37" value="VCC" style="rounded=0;whiteSpace=wrap;html=1;" vertex="1" parent="1">
          <mxGeometry x="295" y="60" width="40" height="20" as="geometry" />
        </mxCell>
        <mxCell id="T63et0xQHMFBG8mWLtPG-38" value="" style="rounded=0;whiteSpace=wrap;html=1;rotation=90;" vertex="1" parent="1">
          <mxGeometry x="150" y="90" width="30" height="10" as="geometry" />
        </mxCell>
        <mxCell id="T63et0xQHMFBG8mWLtPG-42" value="" style="endArrow=none;html=1;rounded=0;entryX=0;entryY=0.5;entryDx=0;entryDy=0;" edge="1" parent="1" target="T63et0xQHMFBG8mWLtPG-37">
          <mxGeometry width="50" height="50" relative="1" as="geometry">
            <mxPoint x="165" y="70" as="sourcePoint" />
            <mxPoint x="185" y="140" as="targetPoint" />
          </mxGeometry>
        </mxCell>
        <mxCell id="T63et0xQHMFBG8mWLtPG-43" value="" style="rounded=0;whiteSpace=wrap;html=1;rotation=90;" vertex="1" parent="1">
          <mxGeometry x="170" y="90" width="30" height="10" as="geometry" />
        </mxCell>
        <mxCell id="T63et0xQHMFBG8mWLtPG-44" value="" style="endArrow=none;html=1;rounded=0;exitX=0;exitY=0.5;exitDx=0;exitDy=0;" edge="1" parent="1" source="T63et0xQHMFBG8mWLtPG-38">
          <mxGeometry width="50" height="50" relative="1" as="geometry">
            <mxPoint x="135" y="190" as="sourcePoint" />
            <mxPoint x="165" y="70" as="targetPoint" />
          </mxGeometry>
        </mxCell>
        <mxCell id="T63et0xQHMFBG8mWLtPG-45" value="" style="endArrow=none;html=1;rounded=0;exitX=0;exitY=0.5;exitDx=0;exitDy=0;" edge="1" parent="1" source="T63et0xQHMFBG8mWLtPG-43">
          <mxGeometry width="50" height="50" relative="1" as="geometry">
            <mxPoint x="136" y="190" as="sourcePoint" />
            <mxPoint x="185" y="70" as="targetPoint" />
          </mxGeometry>
        </mxCell>
        <mxCell id="T63et0xQHMFBG8mWLtPG-46" value="" style="endArrow=none;html=1;rounded=0;" edge="1" parent="1">
          <mxGeometry width="50" height="50" relative="1" as="geometry">
            <mxPoint x="165" y="260" as="sourcePoint" />
            <mxPoint x="165" y="215" as="targetPoint" />
          </mxGeometry>
        </mxCell>
        <mxCell id="T63et0xQHMFBG8mWLtPG-47" value="" style="endArrow=none;html=1;rounded=0;entryX=1;entryY=0.5;entryDx=0;entryDy=0;" edge="1" parent="1" target="T63et0xQHMFBG8mWLtPG-38">
          <mxGeometry width="50" height="50" relative="1" as="geometry">
            <mxPoint x="164.89" y="190" as="sourcePoint" />
            <mxPoint x="165" y="140" as="targetPoint" />
          </mxGeometry>
        </mxCell>
        <mxCell id="T63et0xQHMFBG8mWLtPG-48" value="" style="endArrow=none;html=1;rounded=0;" edge="1" parent="1">
          <mxGeometry width="50" height="50" relative="1" as="geometry">
            <mxPoint x="175" y="185" as="sourcePoint" />
            <mxPoint x="165" y="215" as="targetPoint" />
          </mxGeometry>
        </mxCell>
        <mxCell id="T63et0xQHMFBG8mWLtPG-49" value="" style="endArrow=none;html=1;rounded=0;jumpSize=0;" edge="1" parent="1">
          <mxGeometry width="50" height="50" relative="1" as="geometry">
            <mxPoint x="185" y="260" as="sourcePoint" />
            <mxPoint x="185.11" y="215" as="targetPoint" />
          </mxGeometry>
        </mxCell>
        <mxCell id="T63et0xQHMFBG8mWLtPG-51" value="" style="endArrow=none;html=1;rounded=0;jumpSize=0;" edge="1" parent="1">
          <mxGeometry width="50" height="50" relative="1" as="geometry">
            <mxPoint x="195.11" y="185" as="sourcePoint" />
            <mxPoint x="185.11" y="215" as="targetPoint" />
          </mxGeometry>
        </mxCell>
        <mxCell id="T63et0xQHMFBG8mWLtPG-59" value="" style="endArrow=none;html=1;rounded=0;entryX=0;entryY=0.5;entryDx=0;entryDy=0;" edge="1" parent="1" target="T63et0xQHMFBG8mWLtPG-28">
          <mxGeometry width="50" height="50" relative="1" as="geometry">
            <mxPoint x="165" y="120" as="sourcePoint" />
            <mxPoint x="115" y="80" as="targetPoint" />
          </mxGeometry>
        </mxCell>
        <mxCell id="T63et0xQHMFBG8mWLtPG-60" value="" style="endArrow=none;html=1;rounded=0;entryX=0;entryY=0.5;entryDx=0;entryDy=0;" edge="1" parent="1" target="T63et0xQHMFBG8mWLtPG-34">
          <mxGeometry width="50" height="50" relative="1" as="geometry">
            <mxPoint x="185" y="150" as="sourcePoint" />
            <mxPoint x="105" y="160" as="targetPoint" />
          </mxGeometry>
        </mxCell>
        <mxCell id="T63et0xQHMFBG8mWLtPG-61" value="" style="endArrow=none;html=1;rounded=0;jumpSize=0;entryX=1;entryY=0.5;entryDx=0;entryDy=0;" edge="1" parent="1" target="T63et0xQHMFBG8mWLtPG-43">
          <mxGeometry width="50" height="50" relative="1" as="geometry">
            <mxPoint x="185" y="190" as="sourcePoint" />
            <mxPoint x="145" y="140" as="targetPoint" />
          </mxGeometry>
        </mxCell>
        <mxCell id="T63et0xQHMFBG8mWLtPG-62" value="" style="endArrow=none;html=1;rounded=0;jumpSize=0;entryX=0;entryY=0.5;entryDx=0;entryDy=0;" edge="1" parent="1" target="T63et0xQHMFBG8mWLtPG-35">
          <mxGeometry width="50" height="50" relative="1" as="geometry">
            <mxPoint x="165" y="260" as="sourcePoint" />
            <mxPoint x="-55" y="80" as="targetPoint" />
          </mxGeometry>
        </mxCell>
        <mxCell id="T63et0xQHMFBG8mWLtPG-63" value="K1" style="text;html=1;strokeColor=none;fillColor=none;align=center;verticalAlign=middle;whiteSpace=wrap;rounded=0;" vertex="1" parent="1">
          <mxGeometry x="120" y="190" width="60" height="30" as="geometry" />
        </mxCell>
        <mxCell id="T63et0xQHMFBG8mWLtPG-64" value="K2" style="text;html=1;strokeColor=none;fillColor=none;align=center;verticalAlign=middle;whiteSpace=wrap;rounded=0;" vertex="1" parent="1">
          <mxGeometry x="175" y="190" width="60" height="30" as="geometry" />
        </mxCell>
        <mxCell id="T63et0xQHMFBG8mWLtPG-65" value="Naar wisseldecoder" style="text;html=1;strokeColor=none;fillColor=none;align=center;verticalAlign=middle;whiteSpace=wrap;rounded=0;" vertex="1" parent="1">
          <mxGeometry x="145" y="320" width="120" height="30" as="geometry" />
        </mxCell>
        <mxCell id="T63et0xQHMFBG8mWLtPG-66" value="R1" style="text;html=1;strokeColor=none;fillColor=none;align=center;verticalAlign=middle;whiteSpace=wrap;rounded=0;" vertex="1" parent="1">
          <mxGeometry x="120" y="80" width="60" height="30" as="geometry" />
        </mxCell>
        <mxCell id="T63et0xQHMFBG8mWLtPG-67" value="R2" style="text;html=1;strokeColor=none;fillColor=none;align=center;verticalAlign=middle;whiteSpace=wrap;rounded=0;" vertex="1" parent="1">
          <mxGeometry x="175" y="80" width="60" height="30" as="geometry" />
        </mxCell>
        <mxCell id="T63et0xQHMFBG8mWLtPG-68" value="Naar slaves" style="text;html=1;strokeColor=none;fillColor=none;align=center;verticalAlign=middle;whiteSpace=wrap;rounded=0;" vertex="1" parent="1">
          <mxGeometry x="645" y="65" width="120" height="30" as="geometry" />
        </mxCell>
        <mxCell id="T63et0xQHMFBG8mWLtPG-69" value="Naar LEDS" style="text;html=1;strokeColor=none;fillColor=none;align=center;verticalAlign=middle;whiteSpace=wrap;rounded=0;" vertex="1" parent="1">
          <mxGeometry x="645" y="150" width="120" height="30" as="geometry" />
        </mxCell>
        <mxCell id="T63et0xQHMFBG8mWLtPG-70" value="Naar LEDS" style="text;html=1;strokeColor=none;fillColor=none;align=center;verticalAlign=middle;whiteSpace=wrap;rounded=0;" vertex="1" parent="1">
          <mxGeometry x="645" y="235" width="120" height="30" as="geometry" />
        </mxCell>
        <mxCell id="T63et0xQHMFBG8mWLtPG-71" value="Naar LEDS" style="text;html=1;strokeColor=none;fillColor=none;align=center;verticalAlign=middle;whiteSpace=wrap;rounded=0;" vertex="1" parent="1">
          <mxGeometry x="645" y="315" width="120" height="30" as="geometry" />
        </mxCell>
      </root>
    </mxGraphModel>
  </diagram>
</mxfile>
